<svg xmlns="http://www.w3.org/2000/svg" width="1729" height="283" viewBox="0 0 1729 283" fill="none"><path d="M202.219 198.578C202.219 201.203 201.75 203.641 200.812 205.891C199.875 208.141 198.562 210.109 196.875 211.797C195.281 213.391 193.359 214.656 191.109 215.594C188.859 216.531 186.422 217 183.797 217H51.8906C48.5156 217 44.8594 216.625 40.9219 215.875C37.0781 215.031 33.2344 213.766 29.3906 212.078C25.6406 210.391 22.0312 208.234 18.5625 205.609C15.0938 202.891 12 199.656 9.28125 195.906C6.65625 192.062 4.54688 187.656 2.95312 182.688C1.35938 177.625 0.5625 171.953 0.5625 165.672V66.6719C0.5625 63.2969 0.9375 59.6875 1.6875 55.8438C2.53125 51.9062 3.79688 48.0625 5.48438 44.3125C7.17188 40.4688 9.375 36.8125 12.0938 33.3438C14.8125 29.875 18.0469 26.8281 21.7969 24.2031C25.6406 21.4844 30.0469 19.3281 35.0156 17.7344C39.9844 16.1406 45.6094 15.3438 51.8906 15.3438H200.531V51.9062H51.8906C47.1094 51.9062 43.4531 53.1719 40.9219 55.7031C38.3906 58.2344 37.125 61.9844 37.125 66.9531V165.672C37.125 170.359 38.3906 174.016 40.9219 176.641C43.5469 179.172 47.2031 180.438 51.8906 180.438H165.656V134.594H68.3438V97.75H183.797C186.422 97.75 188.859 98.2656 191.109 99.2969C193.359 100.234 195.281 101.547 196.875 103.234C198.562 104.922 199.875 106.891 200.812 109.141C201.75 111.297 202.219 113.641 202.219 116.172V198.578ZM442.125 15.3438L346.641 209.828C345.141 212.828 342.891 215.219 339.891 217C336.984 218.875 333.75 219.812 330.188 219.812C326.719 219.812 323.484 218.875 320.484 217C317.578 215.219 315.328 212.828 313.734 209.828L218.391 15.3438H259.312L330.188 160.609L401.344 15.3438H442.125ZM660.938 99.7188C660.938 108.062 659.906 115.516 657.844 122.078C655.781 128.641 652.969 134.453 649.406 139.516C645.938 144.484 641.906 148.75 637.312 152.312C632.719 155.875 627.891 158.781 622.828 161.031C617.859 163.281 612.797 164.922 607.641 165.953C602.578 166.984 597.797 167.5 593.297 167.5H510.609V130.938H593.297C597.984 130.562 602.203 129.625 605.953 128.125C609.797 126.531 613.078 124.422 615.797 121.797C618.516 119.172 620.625 116.031 622.125 112.375C623.625 108.625 624.375 104.406 624.375 99.7188V83.125C623.906 78.5312 622.922 74.3125 621.422 70.4688C619.922 66.625 617.859 63.3438 615.234 60.625C612.703 57.9063 609.609 55.7969 605.953 54.2969C602.297 52.7031 598.078 51.9062 593.297 51.9062H510.891C506.016 51.9062 502.312 53.1719 499.781 55.7031C497.25 58.2344 495.984 61.8906 495.984 66.6719V217H459.422V66.6719C459.422 57.2969 461.109 49.3281 464.484 42.7656C467.953 36.2031 472.219 30.9063 477.281 26.875C482.438 22.8437 488.016 19.9375 494.016 18.1562C500.016 16.2813 505.547 15.3438 510.609 15.3438H593.297C601.547 15.3438 608.953 16.4219 615.516 18.5781C622.078 20.6406 627.844 23.4531 632.812 27.0156C637.875 30.4844 642.141 34.5156 645.609 39.1094C649.172 43.7031 652.078 48.5312 654.328 53.5938C656.672 58.5625 658.359 63.625 659.391 68.7812C660.422 73.8438 660.938 78.625 660.938 83.125V99.7188ZM710.859 198.578C710.859 201.109 710.344 203.5 709.312 205.75C708.375 207.906 707.062 209.828 705.375 211.516C703.781 213.109 701.859 214.375 699.609 215.312C697.453 216.25 695.156 216.719 692.719 216.719C690.188 216.719 687.797 216.25 685.547 215.312C683.391 214.375 681.469 213.109 679.781 211.516C678.188 209.828 676.922 207.906 675.984 205.75C675.047 203.5 674.578 201.109 674.578 198.578C674.578 196.141 675.047 193.844 675.984 191.688C676.922 189.438 678.188 187.516 679.781 185.922C681.469 184.234 683.391 182.922 685.547 181.984C687.797 180.953 690.188 180.438 692.719 180.438C695.156 180.438 697.453 180.953 699.609 181.984C701.859 182.922 703.781 184.234 705.375 185.922C707.062 187.516 708.375 189.438 709.312 191.688C710.344 193.844 710.859 196.141 710.859 198.578ZM944.719 132.625C944.719 144.906 942.562 156.203 938.25 166.516C934.031 176.828 928.172 185.734 920.672 193.234C913.172 200.641 904.266 206.453 893.953 210.672C883.641 214.891 872.438 217 860.344 217H761.625C759 217 756.562 216.531 754.312 215.594C752.062 214.656 750.094 213.391 748.406 211.797C746.812 210.109 745.547 208.141 744.609 205.891C743.672 203.641 743.203 201.203 743.203 198.578V33.7656C743.203 31.2344 743.672 28.8438 744.609 26.5938C745.547 24.3438 746.812 22.375 748.406 20.6875C750.094 19 752.062 17.6875 754.312 16.75C756.562 15.8125 759 15.3438 761.625 15.3438H860.344C872.438 15.3438 883.641 17.4531 893.953 21.6719C904.266 25.8906 913.172 31.75 920.672 39.25C928.172 46.6563 934.031 55.5625 938.25 65.9688C942.562 76.2812 944.719 87.5312 944.719 99.7188V132.625ZM908.156 99.7188C908.156 92.5938 906.984 86.0781 904.641 80.1719C902.391 74.2656 899.156 69.25 894.938 65.125C890.719 60.9062 885.656 57.6719 879.75 55.4219C873.938 53.0781 867.469 51.9062 860.344 51.9062H779.766V180.438H860.344C867.469 180.438 873.938 179.312 879.75 177.062C885.656 174.719 890.719 171.484 894.938 167.359C899.156 163.141 902.391 158.125 904.641 152.312C906.984 146.406 908.156 139.844 908.156 132.625V99.7188ZM1013.62 33.7656H977.062V0.71875H1013.62V33.7656ZM1013.62 217H977.062V64.9844H1013.62V217ZM1214.16 231.625C1214.16 237.906 1213.36 243.531 1211.77 248.5C1210.17 253.562 1208.06 257.969 1205.44 261.719C1202.81 265.562 1199.77 268.797 1196.3 271.422C1192.83 274.141 1189.17 276.344 1185.33 278.031C1181.58 279.719 1177.73 280.938 1173.8 281.688C1169.95 282.531 1166.3 282.953 1162.83 282.953H1096.88V246.391H1162.83C1167.8 246.391 1171.5 245.125 1173.94 242.594C1176.38 240.062 1177.59 236.406 1177.59 231.625V116.172C1177.59 111.391 1176.38 107.781 1173.94 105.344C1171.5 102.812 1167.8 101.547 1162.83 101.547H1096.88C1092.38 101.547 1088.81 102.953 1086.19 105.766C1083.56 108.484 1082.25 111.953 1082.25 116.172V165.672C1082.25 170.453 1083.52 174.109 1086.05 176.641C1088.58 179.172 1092.28 180.438 1097.16 180.438H1162.83V217H1096.88C1093.41 217 1089.75 216.625 1085.91 215.875C1082.06 215.031 1078.22 213.766 1074.38 212.078C1070.62 210.391 1067.02 208.234 1063.55 205.609C1060.08 202.891 1057.03 199.656 1054.41 195.906C1051.78 192.062 1049.67 187.656 1048.08 182.688C1046.48 177.625 1045.69 171.953 1045.69 165.672V116.172C1045.69 112.703 1046.06 109.047 1046.81 105.203C1047.66 101.359 1048.92 97.5625 1050.61 93.8125C1052.3 89.9688 1054.45 86.3125 1057.08 82.8438C1059.8 79.375 1063.03 76.3281 1066.78 73.7031C1070.62 71.0781 1075.03 68.9688 1080 67.375C1084.97 65.7812 1090.59 64.9844 1096.88 64.9844H1162.83C1166.3 64.9844 1169.95 65.4062 1173.8 66.25C1177.73 67 1181.58 68.2188 1185.33 69.9062C1189.17 71.5938 1192.83 73.7969 1196.3 76.5156C1199.77 79.1406 1202.81 82.375 1205.44 86.2188C1208.06 89.9688 1210.17 94.3281 1211.77 99.2969C1213.36 104.266 1214.16 109.891 1214.16 116.172V231.625ZM1284.75 33.7656H1248.19V0.71875H1284.75V33.7656ZM1284.75 217H1248.19V64.9844H1284.75V217ZM1458.14 101.547H1394.3V217H1357.31V101.547H1309.78V64.9844H1357.31V15.3438H1394.3V64.9844H1458.14V101.547ZM1630.41 166.656C1630.41 171.719 1629.52 177.203 1627.73 183.109C1625.95 188.922 1623.05 194.359 1619.02 199.422C1615.08 204.391 1609.88 208.562 1603.41 211.938C1597.03 215.312 1589.25 217 1580.06 217H1514.11C1509.05 217 1503.56 216.109 1497.66 214.328C1491.84 212.547 1486.41 209.688 1481.34 205.75C1476.38 201.719 1472.2 196.516 1468.83 190.141C1465.45 183.672 1463.77 175.844 1463.77 166.656C1463.77 161.594 1464.66 156.109 1466.44 150.203C1468.22 144.297 1471.08 138.859 1475.02 133.891C1479.05 128.828 1484.25 124.609 1490.62 121.234C1497.09 117.859 1504.92 116.172 1514.11 116.172H1580.06V151.047H1514.11C1509.14 151.047 1505.3 152.594 1502.58 155.688C1499.86 158.688 1498.5 162.438 1498.5 166.938C1498.5 171.719 1500.05 175.469 1503.14 178.188C1506.33 180.812 1510.08 182.125 1514.39 182.125H1580.06C1585.03 182.125 1588.88 180.625 1591.59 177.625C1594.31 174.625 1595.67 170.875 1595.67 166.375V115.328C1595.67 110.547 1594.17 106.75 1591.17 103.938C1588.27 101.125 1584.56 99.7188 1580.06 99.7188H1499.77V64.9844H1580.06C1585.12 64.9844 1590.56 65.875 1596.38 67.6562C1602.28 69.4375 1607.72 72.3438 1612.69 76.375C1617.75 80.3125 1621.97 85.5156 1625.34 91.9844C1628.72 98.3594 1630.41 106.141 1630.41 115.328V166.656ZM1728.42 217H1712.11C1706.86 217 1701.23 216.109 1695.23 214.328C1689.33 212.547 1683.8 209.641 1678.64 205.609C1673.48 201.484 1669.22 196.188 1665.84 189.719C1662.47 183.156 1660.78 175.141 1660.78 165.672V0.71875H1697.34V165.672C1697.34 170.172 1698.75 173.781 1701.56 176.5C1704.38 179.125 1707.89 180.438 1712.11 180.438H1728.42V217Z" fill="black"></path></svg>